<svg xmlns="http://www.w3.org/2000/svg" viewBox="0 0 64 64">
  <rect width="64" height="64" rx="16" fill="#17152f"/>
  <path
    d="M32 12c-8 0-14 6-14 14 0 3 1 6 3 8-3 2-4 5-4 8 0 6 5 10 11 10h4V12Zm0 0c8 0 14 6 14 14 0 3-1 6-3 8 3 2 4 5 4 8 0 6-5 10-11 10h-4V12Z"
    fill="none"
    stroke="#a78bfa"
    stroke-linecap="round"
    stroke-linejoin="round"
    stroke-width="4"
  />
  <path d="M24 25h5m11 0h-5M23 40h6m12 0h-6M32 20v7m0 10v11" fill="none" stroke="#c4b5fd" stroke-linecap="round" stroke-width="3"/>
</svg>
